# xmcd
#
# Track frame offsets:
#	150
#	4099
#	22605
#	42336
#	44429
#	61177
#	77422
#	97331
#	103487
#	122862
#	137073
#	150685
#
# Disc length: 2403 seconds
#
# Revision: 0
# Processed by: cddbd v1.5.2PL0 Copyright (c) Steve Scherf et al.
# Submitted via: audiograbber 1.83.01
#
DISCID=9809610c
DTITLE=JDS - EP Vol.1
DYEAR=2010
DGENRE=Rap
TTITLE0=Intro
TTITLE1=Verarscht
TTITLE2=Humor and Dredt
TTITLE3=Skit
TTITLE4=Rappers.in
TTITLE5=Neuer Brief
TTITLE6=Fickt Euch
TTITLE7=Skit
TTITLE8=Ich weiﬂ es nicht
TTITLE9=Irre
TTITLE10=Ich sitze hier
TTITLE11=Outro
EXTD=www.myspace.com/justdoshit
EXTT0=
EXTT1=
EXTT2=
EXTT3=
EXTT4=
EXTT5=
EXTT6=
EXTT7=
EXTT8=
EXTT9=
EXTT10=
EXTT11=
PLAYORDER=
